<svg width="37" height="64" viewBox="0 0 37 64" fill="none" xmlns="http://www.w3.org/2000/svg">
<path d="M17.4666 14.5695C21.479 14.5695 24.7316 11.3169 24.7316 7.30453C24.7316 3.2922 21.479 0.0395508 17.4666 0.0395508C13.4543 0.0395508 10.2017 3.2922 10.2017 7.30453C10.2017 11.3169 13.4543 14.5695 17.4666 14.5695Z" fill="#9DA1AB"/>
<path d="M34.4697 14.2604C32.7694 13.9513 31.0691 15.0333 30.6054 16.7336L29.3688 22.762L25.0407 18.1247C24.8861 17.9702 24.577 17.661 24.2678 17.5065C23.8041 17.1973 23.3404 17.0427 22.8767 17.0427H11.7473H11.5928C11.4382 17.0427 11.4382 17.0427 11.2836 17.0427C10.6653 17.1973 10.047 17.5064 9.42874 17.9702L1.23635 26.9355C0.927207 27.2446 0.772619 27.5537 0.618045 27.8629C0.618045 27.8629 0.618059 28.0174 0.463486 28.0174V28.172C-0.000235543 29.254 0.308902 30.6452 1.08177 31.5727L9.27418 40.2288V60.3233C9.27418 62.1782 10.6653 63.5694 12.5202 63.5694C14.3751 63.5694 15.7663 62.1782 15.7663 60.3233V40.5379H18.8577V60.3233C18.8577 62.1782 20.2489 63.5694 22.1038 63.5694C23.9587 63.5694 25.3498 62.1782 25.3498 60.3233V38.0647V37.9102V28.172L28.5959 31.5727C29.2142 32.3455 30.2962 32.6547 31.2236 32.6547C32.7694 32.8092 34.3151 31.7272 34.6243 30.0269L36.9429 18.1247C37.252 16.2699 36.17 14.5695 34.4697 14.2604ZM8.03759 29.4086L9.42874 27.8629V30.7998L8.03759 29.4086Z" fill="#9DA1AB"/>
</svg>
