<svg width="52" height="51" viewBox="0 0 52 51" fill="none" xmlns="http://www.w3.org/2000/svg">
<path d="M26.1778 0.138306C12.1116 0.138306 0.827637 11.4222 0.827637 25.4884C0.827637 39.5546 12.1116 50.8385 26.1778 50.8385C40.244 50.8385 51.5278 39.5546 51.5278 25.4884C51.5278 11.4222 40.244 0.138306 26.1778 0.138306ZM13.3481 23.4789C13.3481 21.7786 14.7392 20.3875 16.4395 20.3875C18.1399 20.3875 19.531 21.7786 19.531 23.4789C19.531 25.1793 18.1399 26.5704 16.4395 26.5704C14.7392 26.5704 13.3481 25.1793 13.3481 23.4789ZM26.1778 39.2455C22.1588 39.2455 18.7582 36.154 18.1399 32.2896H34.061C33.7518 36.3086 30.3512 39.2455 26.1778 39.2455ZM35.9159 26.5704C34.2156 26.5704 32.8244 25.1793 32.8244 23.4789C32.8244 21.7786 34.2156 20.3875 35.9159 20.3875C37.6162 20.3875 39.0074 21.7786 39.0074 23.4789C39.0074 25.1793 37.6162 26.5704 35.9159 26.5704Z" fill="#9DA1AB"/>
</svg>
