<svg width="20" height="20" viewBox="0 0 20 20" fill="none" xmlns="http://www.w3.org/2000/svg">
<path d="M19.4752 15.429L15.4271 12.7294C14.9134 12.3895 14.2248 12.5013 13.845 12.9863L12.6658 14.5024C12.5143 14.7022 12.2388 14.7602 12.0196 14.6384L11.7953 14.5148C11.0517 14.1095 10.1266 13.6049 8.26251 11.7402C6.39845 9.87544 5.89286 8.94956 5.48757 8.20737L5.36458 7.98306C5.24112 7.76388 5.29799 7.48724 5.49788 7.33449L7.01297 6.15568C7.49774 5.77585 7.60972 5.08744 7.27028 4.57357L4.57068 0.525501C4.2228 0.00221889 3.52485 -0.154867 2.9863 0.168874L1.29355 1.18571C0.761671 1.4984 0.371456 2.00481 0.204723 2.59883C-0.404835 4.81982 0.0537292 8.65293 5.70024 14.3001C10.1919 18.7914 13.5358 19.9993 15.8341 19.9993C16.363 20.0015 16.8899 19.9327 17.4005 19.7946C17.9947 19.6281 18.5011 19.2378 18.8136 18.7058L19.8315 17.0141C20.1557 16.4754 19.9987 15.777 19.4752 15.429ZM19.2572 16.6721L18.2417 18.3648C18.0173 18.7488 17.653 19.0312 17.2252 19.1527C15.1748 19.7157 11.5927 19.2494 6.17181 13.8285C0.750931 8.40765 0.284711 4.82584 0.847635 2.77517C0.969336 2.34679 1.25203 1.98204 1.6365 1.75731L3.32926 0.741796C3.56294 0.601192 3.86586 0.669346 4.01681 0.896422L5.48328 3.09809L6.71411 4.94414C6.86151 5.16704 6.81308 5.46578 6.6028 5.63072L5.08736 6.80953C4.62618 7.16217 4.49448 7.80024 4.77842 8.30665L4.89875 8.52529C5.32471 9.3065 5.85427 10.2783 7.78766 12.2114C9.72104 14.1445 10.6926 14.6741 11.4734 15.1L11.6924 15.2206C12.1988 15.5045 12.8369 15.3729 13.1895 14.9117L14.3683 13.3962C14.5333 13.1861 14.8319 13.1377 15.0549 13.2849L19.1026 15.9845C19.3299 16.1354 19.398 16.4384 19.2572 16.6721Z" fill="#00C0FF"/>
<path d="M11.3328 3.335C14.4605 3.33847 16.9951 5.87314 16.9986 9.00084C16.9986 9.18491 17.1478 9.33411 17.3319 9.33411C17.516 9.33411 17.6652 9.18491 17.6652 9.00084C17.6613 5.50515 14.8285 2.67228 11.3328 2.66846C11.1487 2.66846 10.9995 2.81765 10.9995 3.00173C10.9995 3.1858 11.1487 3.335 11.3328 3.335Z" fill="#00C0FF"/>
<path d="M11.3328 5.33475C13.3565 5.33714 14.9965 6.97713 14.9989 9.00089C14.9989 9.18496 15.1482 9.33416 15.3322 9.33416C15.5163 9.33416 15.6655 9.18496 15.6655 9.00089C15.6627 6.60914 13.7245 4.67095 11.3328 4.66821C11.1487 4.66821 10.9995 4.81741 10.9995 5.00148C10.9995 5.18556 11.1487 5.33475 11.3328 5.33475Z" fill="#00C0FF"/>
<path d="M11.3328 7.33451C12.2526 7.3356 12.9981 8.08104 12.9992 9.00094C12.9992 9.18502 13.1485 9.33421 13.3325 9.33421C13.5165 9.33421 13.6658 9.18502 13.6658 9.00094C13.6643 7.71309 12.6206 6.66941 11.3328 6.66797C11.1487 6.66797 10.9995 6.81717 10.9995 7.00124C10.9995 7.18531 11.1487 7.33451 11.3328 7.33451Z" fill="#00C0FF"/>
</svg>
