<svg width="59" height="40" viewBox="0 0 59 40" fill="none" xmlns="http://www.w3.org/2000/svg">
<path d="M9.91094 39.7187H2.64596C1.40937 39.7187 0.481934 38.7912 0.481934 37.5546V30.1351C0.481934 28.8985 1.40937 27.9711 2.64596 27.9711H9.91094C11.1475 27.9711 12.075 28.8985 12.075 30.1351V37.5546C12.075 38.7912 11.1475 39.7187 9.91094 39.7187Z" fill="#9DA1AB"/>
<path d="M25.3682 39.7186H18.1032C16.8666 39.7186 15.9392 38.7911 15.9392 37.5546V20.0878C15.9392 18.8512 16.8666 17.9237 18.1032 17.9237H25.3682C26.6048 17.9237 27.5322 18.8512 27.5322 20.0878V37.5546C27.5322 38.7911 26.6048 39.7186 25.3682 39.7186Z" fill="#9DA1AB"/>
<path d="M40.8257 39.7187H33.5608C32.3242 39.7187 31.3967 38.7912 31.3967 37.5546V11.7408C31.3967 10.5042 32.3242 9.57678 33.5608 9.57678H40.8257C42.0623 9.57678 42.9898 10.5042 42.9898 11.7408V37.5546C42.9898 38.7912 42.0623 39.7187 40.8257 39.7187Z" fill="#9DA1AB"/>
<path d="M56.283 39.7187H49.018C47.7814 39.7187 46.854 38.7912 46.854 37.5547V2.31187C46.854 1.07528 47.7814 0.147827 49.018 0.147827H56.283C57.5196 0.147827 58.447 1.07528 58.447 2.31187V37.5547C58.447 38.7912 57.5196 39.7187 56.283 39.7187Z" fill="#9DA1AB"/>
</svg>
