<svg width="42" height="46" viewBox="0 0 42 46" fill="none" xmlns="http://www.w3.org/2000/svg">
<path d="M26.25 39.9375H16.3125V46H6.9375V39.9375H0.59375V32.3438H6.9375V29.9688H0.59375V22.375H6.9375V0.5H24.625C28.0417 0.5 31.0417 1.11458 33.625 2.34375C36.2083 3.57292 38.2083 5.33333 39.625 7.625C41.0625 9.89583 41.7812 12.4896 41.7812 15.4062C41.7812 19.9062 40.25 23.4583 37.1875 26.0625C34.1458 28.6667 29.9062 29.9688 24.4688 29.9688H16.3125V32.3438H26.25V39.9375ZM16.3125 22.375H24.4062C29.6562 22.375 32.2812 20.0729 32.2812 15.4688C32.2812 13.2812 31.6146 11.5208 30.2812 10.1875C28.9479 8.83333 27.1042 8.14583 24.75 8.125H16.3125V22.375Z" fill="#9DA1AB"/>
</svg>
