<svg width="45" height="45" viewBox="0 0 45 45" fill="none" xmlns="http://www.w3.org/2000/svg">
<path d="M43.8194 34.7152L34.7112 28.6411C33.5554 27.8765 32.006 28.1281 31.1515 29.2192L28.4984 32.6305C28.1574 33.0801 27.5376 33.2105 27.0444 32.9365L26.5397 32.6582C24.8667 31.7463 22.785 30.6111 18.5909 26.4154C14.3968 22.2198 13.2592 20.1366 12.3473 18.4666L12.0706 17.962C11.7928 17.4688 11.9207 16.8463 12.3705 16.5027L15.7794 13.8503C16.8702 12.9957 17.1221 11.4468 16.3584 10.2906L10.2843 1.18244C9.50154 0.00505354 7.93117 -0.34839 6.71942 0.380027L2.91072 2.66792C1.714 3.37147 0.83602 4.51089 0.46087 5.84742C-0.910635 10.8447 0.121135 19.4691 12.8258 32.1753C22.932 42.2808 30.4557 44.9984 35.6269 44.9984C36.8171 45.0035 38.0025 44.8486 39.1514 44.538C40.4882 44.1633 41.6278 43.2852 42.3309 42.0881L44.6211 38.2817C45.3506 37.0697 44.9973 35.4984 43.8194 34.7152ZM43.329 37.5123L41.0441 41.321C40.5392 42.185 39.7196 42.8202 38.7569 43.0937C34.1436 44.3603 26.0838 43.3112 13.8868 31.1142C1.68984 18.9173 0.640843 10.8582 1.90742 6.24418C2.18125 5.28034 2.81731 4.45966 3.68237 3.95401L7.49108 1.6691C8.01685 1.35274 8.69843 1.50609 9.03807 2.01701L12.3376 6.97076L15.107 11.1244C15.4386 11.6259 15.3297 12.2981 14.8565 12.6692L11.4468 15.3215C10.4091 16.1149 10.1128 17.5506 10.7517 18.69L11.0224 19.182C11.9808 20.9397 13.1724 23.1263 17.5225 27.4758C21.8726 31.8251 24.0585 33.0167 25.8155 33.975L26.3081 34.2465C27.4475 34.8852 28.8832 34.589 29.6767 33.5513L32.329 30.1416C32.7002 29.6687 33.3721 29.5599 33.8738 29.8912L42.9811 35.9653C43.4924 36.3046 43.6458 36.9866 43.329 37.5123Z" fill="#333333"/>
<path d="M25.4989 7.50387C32.5362 7.51169 38.2391 13.2147 38.247 20.252C38.247 20.6662 38.5827 21.0019 38.9969 21.0019C39.4111 21.0019 39.7467 20.6662 39.7467 20.252C39.738 12.3867 33.3642 6.01276 25.4989 6.00415C25.0847 6.00415 24.749 6.33984 24.749 6.75401C24.749 7.16818 25.0847 7.50387 25.4989 7.50387Z" fill="#333333"/>
<path d="M25.4989 12.0031C30.0523 12.0085 33.7423 15.6985 33.7477 20.2519C33.7477 20.6661 34.0835 21.0018 34.4975 21.0018C34.9117 21.0018 35.2474 20.6661 35.2474 20.2519C35.2412 14.8705 30.8802 10.5096 25.4989 10.5034C25.0847 10.5034 24.749 10.8391 24.749 11.2533C24.749 11.6674 25.0847 12.0031 25.4989 12.0031Z" fill="#333333"/>
<path d="M25.4989 16.5025C27.5686 16.505 29.2458 18.1822 29.2484 20.252C29.2484 20.6662 29.5841 21.0019 29.9982 21.0019C30.4123 21.0019 30.7481 20.6662 30.7481 20.252C30.7447 17.3543 28.3966 15.0061 25.4989 15.0028C25.0847 15.0028 24.749 15.3385 24.749 15.7527C24.749 16.1668 25.0847 16.5025 25.4989 16.5025Z" fill="#333333"/>
</svg>
