<svg width="39" height="50" viewBox="0 0 39 50" fill="none" xmlns="http://www.w3.org/2000/svg">
<path d="M38.2555 17.7598C38.2555 8.48538 30.6814 0.911255 21.407 0.911255C12.1326 0.911255 4.55848 8.48538 4.55848 17.7598V24.2519L0.539551 30.1257H4.55848V41.8733C4.55848 42.9553 5.48591 43.8827 6.56793 43.8827H16.4606V49.2928H38.2555V27.3434C38.2555 27.1888 38.2555 27.1888 38.2555 27.0342V17.7598ZM12.7509 25.4885C11.0506 25.4885 9.6594 24.0973 9.6594 22.397C9.6594 20.6967 11.0506 19.3055 12.7509 19.3055C14.4512 19.3055 15.8423 20.6967 15.8423 22.397C15.8423 24.0973 14.4512 25.4885 12.7509 25.4885Z" fill="#9DA1AB"/>
</svg>
