<svg width="20" height="18" viewBox="0 0 20 18" fill="none" xmlns="http://www.w3.org/2000/svg">
<path d="M10.6344 4.03689L16.9719 0.945419C18.5177 0.17255 19.9088 1.87286 19.136 3.26402L15.8899 8.82869L11.4073 16.7119C10.789 17.7939 9.24325 17.7939 8.47038 16.7119L3.98774 8.82869L0.741696 3.26402C-0.0311729 1.87286 1.51455 0.17255 2.90572 0.945419L9.24325 4.03689C9.70697 4.34604 10.1707 4.34604 10.6344 4.03689Z" fill="url(#paint0_linear)"/>
<path d="M10.6344 4.03689L16.9719 0.945419C18.5177 0.17255 19.9088 1.87286 19.136 3.26402L15.8899 8.82869L11.4073 16.7119C10.789 17.7939 9.24325 17.7939 8.47038 16.7119L3.98774 8.82869L0.741696 3.26402C-0.0311729 1.87286 1.51455 0.17255 2.90572 0.945419L9.24325 4.03689C9.70697 4.34604 10.1707 4.34604 10.6344 4.03689Z" fill="url(#paint1_linear)"/>
<path d="M10.6344 4.03689L16.9719 0.945419C18.5177 0.17255 19.9088 1.87286 19.136 3.26402L15.8899 8.82869L11.4073 16.7119C10.789 17.7939 9.24325 17.7939 8.47038 16.7119L3.98774 8.82869L0.741696 3.26402C-0.0311729 1.87286 1.51455 0.17255 2.90572 0.945419L9.24325 4.03689C9.70697 4.34604 10.1707 4.34604 10.6344 4.03689Z" fill="url(#paint2_linear)"/>
<defs>
<linearGradient id="paint0_linear" x1="-1.63967" y1="-13.8133" x2="23.0808" y2="23.0341" gradientUnits="userSpaceOnUse">
<stop stop-color="#F522FF"/>
<stop offset="1" stop-color="#2654D7"/>
</linearGradient>
<linearGradient id="paint1_linear" x1="0.536974" y1="9.14509" x2="19.3644" y2="9.14509" gradientUnits="userSpaceOnUse">
<stop stop-color="#00D7CF"/>
<stop offset="1" stop-color="#00C0FF"/>
</linearGradient>
<linearGradient id="paint2_linear" x1="0.536974" y1="9.14509" x2="19.3644" y2="9.14509" gradientUnits="userSpaceOnUse">
<stop offset="0.0989583" stop-color="#00C0FF"/>
<stop offset="1" stop-color="#026687"/>
</linearGradient>
</defs>
</svg>
