<svg width="20" height="14" viewBox="0 0 20 14" fill="none" xmlns="http://www.w3.org/2000/svg">
<path d="M19.9861 1.94659C19.9853 1.38218 19.5259 0.923584 18.9616 0.923584C18.9612 0.923584 18.9607 0.923584 18.9603 0.923584L1.02305 0.948232C0.749414 0.948584 0.492266 1.0555 0.299024 1.24925C0.105821 1.44304 -0.000350692 1.7005 8.7029e-07 1.97405L0.013868 12.0533C0.0142196 12.3269 0.121133 12.5841 0.314883 12.7773C0.508281 12.9702 0.765117 13.0763 1.03828 13.0763C1.03875 13.0763 1.03926 13.0763 1.03965 13.0763L18.9769 13.0517C19.5416 13.0509 20.0006 12.5908 19.9999 12.0259L19.9861 1.94659ZM17.8363 1.94956L10.0008 7.39658L2.15 1.97112L17.8363 1.94956ZM13.3143 8.42459L17.9616 12.0287L2.02519 12.0506L6.70081 8.42459C6.92432 8.25119 6.96503 7.92947 6.79167 7.70587C6.61827 7.48236 6.29655 7.44166 6.07296 7.61502L1.03754 11.52L1.02504 2.43901L9.71033 8.44123C9.79799 8.50181 9.89975 8.53205 10.0015 8.53205C10.1038 8.53205 10.2061 8.50146 10.2939 8.44041L18.9623 2.41448L18.9755 11.5186L13.942 7.61506C13.7186 7.44174 13.3968 7.4824 13.2234 7.70591C13.05 7.92943 13.0907 8.25123 13.3143 8.42459Z" fill="#00C0FF"/>
</svg>
