<svg width="262" height="39" viewBox="0 0 262 39" fill="none" xmlns="http://www.w3.org/2000/svg">
<g clip-path="url(#clip0)">
<path d="M253.711 15.9231C253.172 15.9231 252.632 16.0385 252.169 16.2308C251.707 16.4231 251.283 16.7692 250.936 17.2308C250.589 17.6923 250.28 18.2692 250.087 19C249.856 19.7308 249.74 20.6154 249.74 21.6154H257.759C257.759 20.6154 257.644 19.7692 257.412 19.0385C257.181 18.3077 256.873 17.7308 256.526 17.2692C256.14 16.8077 255.716 16.4615 255.253 16.2308C254.675 16.0385 254.213 15.9231 253.711 15.9231ZM254.714 28.0385C255.639 28.0385 256.526 27.8846 257.335 27.5385C258.145 27.2308 258.954 26.7692 259.725 26.1538L260.882 27.8846C260.535 28.1923 260.111 28.5 259.61 28.7692C259.109 29.0385 258.607 29.2692 258.029 29.4231C257.451 29.6154 256.873 29.7308 256.256 29.8461C255.639 29.9615 255.022 30 254.444 30C253.095 30 251.861 29.8077 250.743 29.4615C249.625 29.1154 248.661 28.6154 247.89 27.9231C247.119 27.2308 246.502 26.4231 246.078 25.4231C245.654 24.4231 245.423 23.3077 245.423 22C245.423 20.7308 245.615 19.5769 246.039 18.5769C246.464 17.5769 247.003 16.7308 247.774 16.0769C248.507 15.3846 249.394 14.8846 250.396 14.5385C251.398 14.1923 252.516 14 253.75 14C254.906 14 255.986 14.1538 256.988 14.5C257.991 14.8461 258.877 15.3461 259.61 16C260.342 16.6538 260.959 17.4615 261.383 18.3846C261.807 19.3077 262.039 20.3846 262.039 21.5385V23.5385H249.818C250.049 25.1154 250.589 26.2308 251.475 26.9231C252.285 27.6923 253.403 28.0385 254.714 28.0385ZM237.404 14.0769C238.021 14.0769 238.637 14.1154 239.216 14.2308C239.833 14.3461 240.411 14.4615 240.989 14.6538C241.567 14.8461 242.069 15.0769 242.57 15.3077C243.071 15.5769 243.495 15.8846 243.842 16.1923L242.685 17.9231C241.914 17.3461 241.105 16.8846 240.295 16.5385C239.486 16.2308 238.599 16.0385 237.674 16.0385C236.98 16.0385 236.363 16.1538 235.785 16.3846C235.206 16.6154 234.705 16.9615 234.281 17.4231C233.857 17.9231 233.549 18.5385 233.279 19.3077C233.047 20.0769 232.932 21 232.932 22.0385C232.932 23.1154 233.047 24 233.279 24.7692C233.51 25.5385 233.857 26.1538 234.281 26.6538C234.705 27.1538 235.245 27.5 235.862 27.6923C236.479 27.9231 237.172 28.0385 237.905 28.0385C238.83 28.0385 239.717 27.8846 240.527 27.5385C241.336 27.2308 242.146 26.7692 242.917 26.1538L244.073 27.8846C243.726 28.1923 243.302 28.5 242.801 28.7692C242.3 29.0385 241.799 29.2692 241.22 29.4231C240.642 29.6154 240.064 29.7308 239.447 29.8461C238.83 29.9615 238.213 30 237.635 30C236.286 30 235.052 29.8077 233.934 29.4615C232.816 29.1154 231.852 28.6154 231.081 27.9231C230.31 27.2308 229.693 26.4231 229.269 25.4231C228.845 24.4231 228.614 23.3077 228.614 22C228.614 20.7308 228.845 19.5769 229.269 18.5769C229.693 17.5769 230.31 16.7308 231.043 16.0769C231.814 15.3846 232.739 14.8846 233.78 14.5385C234.936 14.2308 236.093 14.0769 237.404 14.0769ZM225.376 11.0769C225.376 11.6538 225.183 12.1538 224.797 12.5769C224.412 13 223.872 13.2308 223.255 13.2308C222.6 13.2308 222.099 13 221.713 12.5769C221.328 12.1538 221.135 11.6538 221.135 11.0769C221.135 10.5 221.328 9.99999 221.713 9.57691C222.099 9.15383 222.638 8.92307 223.255 8.92307C223.872 8.92307 224.412 9.15383 224.797 9.57691C225.183 9.99999 225.376 10.5 225.376 11.0769ZM225.26 29.4615H221.25V14.9231H225.26V29.4615ZM213.077 29.4615H206.793L201.088 14.6154H205.097L209.801 27.0385H210.07L214.774 14.6154H218.783L213.077 29.4615ZM200.509 16.6538H197.078C195.768 16.6538 194.804 17 194.11 17.6923C193.416 18.3846 193.069 19.4231 193.069 20.7692V29.4615H189.059V20.7692C189.059 18.8461 189.676 17.3077 190.91 16.2308C192.144 15.1538 193.917 14.6154 196.23 14.6154H200.509V16.6538ZM177.648 15.9231C177.108 15.9231 176.569 16.0385 176.106 16.2308C175.643 16.4231 175.219 16.7692 174.872 17.2308C174.525 17.6923 174.217 18.2692 174.024 19C173.793 19.7308 173.677 20.6154 173.677 21.6154H181.696C181.696 20.6154 181.58 19.7692 181.349 19.0385C181.118 18.3077 180.809 17.7308 180.462 17.2692C180.077 16.8077 179.653 16.4615 179.19 16.2308C178.612 16.0385 178.111 15.9231 177.648 15.9231ZM178.65 28.0385C179.576 28.0385 180.462 27.8846 181.272 27.5385C182.082 27.2308 182.891 26.7692 183.662 26.1538L184.819 27.8846C184.472 28.1923 184.048 28.5 183.547 28.7692C183.045 29.0385 182.544 29.2692 181.966 29.4231C181.388 29.6154 180.809 29.7308 180.192 29.8461C179.576 29.9615 178.959 30 178.381 30C177.031 30 175.798 29.8077 174.68 29.4615C173.562 29.1154 172.598 28.6154 171.827 27.9231C171.056 27.2308 170.439 26.4231 170.015 25.4231C169.591 24.4231 169.359 23.3077 169.359 22C169.359 20.7308 169.552 19.5769 169.976 18.5769C170.4 17.5769 170.94 16.7308 171.711 16.0769C172.444 15.3846 173.33 14.8846 174.333 14.5385C175.335 14.1923 176.453 14 177.687 14C178.843 14 179.923 14.1538 180.925 14.5C181.927 14.8461 182.814 15.3461 183.547 16C184.279 16.6538 184.896 17.4615 185.32 18.3846C185.744 19.3077 185.975 20.3846 185.975 21.5385V23.5385H173.754C173.986 25.1154 174.525 26.2308 175.412 26.9231C176.222 27.6923 177.301 28.0385 178.65 28.0385ZM155.905 17.7692C155.905 18.1923 156.097 18.6154 156.483 18.9615C156.868 19.3077 157.524 19.6538 158.488 19.8846L162.921 21.1538C164.309 21.5385 165.35 22.0769 166.082 22.7692C166.815 23.4615 167.2 24.3461 167.2 25.4231C167.2 26.1154 167.046 26.7308 166.776 27.3077C166.507 27.8846 166.005 28.3461 165.388 28.7308C164.733 29.1154 163.885 29.4231 162.883 29.6538C161.842 29.8846 160.569 30 159.066 30C158.295 30 157.524 29.9615 156.753 29.8461C155.982 29.7308 155.288 29.5769 154.594 29.3846C153.9 29.1923 153.283 28.9615 152.743 28.6923C152.204 28.4231 151.703 28.1538 151.317 27.8846L152.474 26.1538C153.283 26.6538 154.208 27.0769 155.288 27.4615C156.367 27.8461 157.601 28 159.066 28C160.531 28 161.495 27.8077 162.073 27.4231C162.651 27.0385 162.921 26.5769 162.921 26C162.921 25.5769 162.728 25.1538 162.304 24.8077C161.919 24.4615 161.186 24.1538 160.184 23.8461L155.75 22.6154C154.517 22.2692 153.553 21.7308 152.743 21.0769C151.972 20.3846 151.587 19.5 151.587 18.3461C151.587 17.7308 151.741 17.1538 152.011 16.6538C152.281 16.1154 152.705 15.6923 153.322 15.3077C153.9 14.9231 154.671 14.6154 155.596 14.4231C156.522 14.1923 157.601 14.0769 158.912 14.0769C160.492 14.0769 161.919 14.3077 163.23 14.7308C164.502 15.1538 165.543 15.6538 166.352 16.2308L165.196 17.9615C164.425 17.4615 163.538 17.0385 162.536 16.6538C161.533 16.2692 160.338 16.1154 158.912 16.1154C157.909 16.1154 157.138 16.2692 156.637 16.6154C156.136 16.8846 155.905 17.2692 155.905 17.7692ZM134.585 20.0769C134.585 18.6923 134.238 17.6923 133.506 17.0385C132.773 16.3846 131.848 16.0769 130.73 16.0769C129.882 16.0769 129.034 16.1923 128.224 16.4615C127.415 16.7308 126.682 17.0769 126.027 17.5L125.024 15.7692C125.449 15.5 125.911 15.2308 126.412 15.0384C126.913 14.8461 127.453 14.6538 127.954 14.5C128.494 14.3461 129.034 14.2308 129.535 14.1538C130.075 14.0769 130.537 14.0385 131 14.0385C132.234 14.0385 133.313 14.1923 134.238 14.4615C135.164 14.7308 135.973 15.1538 136.629 15.6923C137.284 16.2308 137.785 16.8461 138.094 17.5769C138.441 18.3077 138.595 19.1154 138.595 20V29.4231H130.576C127.993 29.4231 126.065 29.0385 124.832 28.2692C123.598 27.5 122.981 26.3077 122.981 24.7308C122.981 23.1538 123.598 21.9615 124.832 21.1923C126.065 20.4231 127.954 20.0385 130.576 20.0385H134.585V20.0769ZM127.299 24.7692C127.299 26.5769 128.378 27.4615 130.576 27.4615H134.585V22.0769H130.576C128.378 22.0769 127.299 22.9615 127.299 24.7692ZM120.013 11.0769C120.013 11.6538 119.82 12.1538 119.434 12.5769C119.049 13 118.509 13.2308 117.892 13.2308C117.237 13.2308 116.736 13 116.35 12.5769C115.965 12.1538 115.772 11.6538 115.772 11.0769C115.772 10.5 115.965 9.99999 116.35 9.57691C116.736 9.15383 117.275 8.92307 117.892 8.92307C118.509 8.92307 119.049 9.15383 119.434 9.57691C119.82 9.99999 120.013 10.5 120.013 11.0769ZM119.858 29.4615H115.849V14.9231H119.858V29.4615ZM104.129 29.4615C102.818 29.4615 101.623 29.3077 100.544 28.9615C99.4644 28.6154 98.5392 28.1154 97.7681 27.4615C96.9971 26.8077 96.4188 26.0385 95.9947 25.1154C95.5707 24.1923 95.3779 23.1923 95.3779 22.0385C95.3779 20.8846 95.5707 19.8846 95.9947 18.9615C96.4188 18.0385 96.9971 17.2692 97.7681 16.6154C98.5392 15.9615 99.4644 15.4615 100.544 15.1154C101.623 14.7692 102.818 14.6154 104.129 14.6154H107.715V9.49999H111.724V29.4615H104.129ZM107.715 27.5V16.6538H104.129C103.474 16.6538 102.896 16.7692 102.356 16.9615C101.816 17.1538 101.353 17.4615 100.968 17.9231C100.582 18.3461 100.274 18.9231 100.043 19.6154C99.8114 20.3077 99.6957 21.1154 99.6957 22.1154C99.6957 23.0769 99.8114 23.9231 100.043 24.6154C100.274 25.3077 100.582 25.8461 100.968 26.3077C101.353 26.7308 101.816 27.0769 102.356 27.2692C102.896 27.4615 103.512 27.5769 104.129 27.5769H107.715V27.5ZM84.5448 15.9231C84.005 15.9231 83.4653 16.0385 83.0027 16.2308C82.5401 16.4231 82.116 16.7692 81.769 17.2308C81.422 17.6923 81.1136 18.2692 80.9209 19C80.6895 19.7308 80.5739 20.6154 80.5739 21.6154H88.5927C88.5927 20.6154 88.4771 19.7692 88.2458 19.0385C88.0144 18.3077 87.706 17.7308 87.3591 17.2692C86.9735 16.8077 86.5495 16.4615 86.0868 16.2308C85.5471 16.0385 85.0459 15.9231 84.5448 15.9231ZM85.5471 28.0385C86.4724 28.0385 87.3591 27.8846 88.1687 27.5385C88.9782 27.2308 89.7878 26.7692 90.5589 26.1538L91.7154 27.8846C91.3685 28.1923 90.9444 28.5 90.4432 28.7692C89.9421 29.0385 89.4409 29.2692 88.8626 29.4231C88.2843 29.6154 87.706 29.7308 87.0892 29.8461C86.4724 29.9615 85.8555 30 85.2772 30C83.9279 30 82.6943 29.8077 81.5763 29.4615C80.4582 29.1154 79.4944 28.6154 78.7234 27.9231C77.9523 27.2308 77.3355 26.4231 76.9114 25.4231C76.4874 24.4231 76.2561 23.3077 76.2561 22C76.2561 20.7308 76.4488 19.5769 76.8729 18.5769C77.297 17.5769 77.8367 16.7308 78.6077 16.0769C79.3402 15.3846 80.2269 14.8846 81.2293 14.5385C82.2316 14.1923 83.3496 14 84.5833 14C85.7399 14 86.8193 14.1538 87.8217 14.5C88.824 14.8461 89.7107 15.3461 90.4432 16C91.1757 16.6538 91.7925 17.4615 92.2166 18.3846C92.6407 19.3077 92.872 20.3846 92.872 21.5385V23.5385H80.651C80.8823 25.1154 81.422 26.2308 82.3087 26.9231C83.1569 27.6923 84.2363 28.0385 85.5471 28.0385ZM50.2334 14.6538H65.1145C67.8517 14.6538 69.8564 15.1538 71.1672 16.1154C72.478 17.0769 73.1333 18.5385 73.1333 20.5V29.5H69.1239V20.5C69.1239 19.1154 68.777 18.1538 68.083 17.5385C67.3891 16.9231 66.3867 16.6538 65.1145 16.6538H63.6881V29.5H59.6787V16.6538H54.2428V29.5H50.2334V14.6538Z" fill="#02688A"/>
<path d="M2.6216 9.76918C3.5854 8.07688 4.81907 6.53841 6.28405 5.23072C8.36586 6.69226 10.5248 8.92303 11.8356 13C7.40206 12.8846 4.62631 11.3846 2.6216 9.76918ZM28.7599 36.6923C26.0998 38.1153 23.0542 38.9615 19.8158 39C9.02125 39.1538 0.154267 30.5384 5.90642e-05 19.7692C-0.038493 16.6153 0.655445 13.6153 1.96622 10.9615C4.58776 13.2692 8.1731 15.5384 12.5295 15.9615C12.568 16.2307 12.6451 16.5 12.6837 16.8076C13.5318 22.5 14.1872 27.3846 17.5027 30.6538C20.1243 33.1923 23.1699 35.1923 28.7599 36.6923ZM37.0486 28.1923C36.239 29.8076 35.1981 31.3076 34.003 32.6153C27.7576 31.923 22.6301 29.8461 20.317 27.6153C17.6184 25 16.616 21.3846 15.8835 16.3461C15.845 16.2307 15.845 16.0769 15.8064 15.9615C15.9606 15.9615 16.1534 15.923 16.3076 15.8846C21.3194 15.1538 25.0975 15.0384 28.3744 16.8461C31.1887 18.3846 34.5813 22.5769 37.0486 28.1923ZM19.2761 -4.64164e-05C30.0707 -0.153893 38.9377 8.46149 39.0919 19.2307C39.0919 19.9615 39.0533 20.6923 39.0148 21.423C36.1619 17.0769 33.5404 14.9615 30.5333 13.3076C26.4468 11.0769 21.5507 11.8461 15.845 12.6923C15.5366 12.7307 15.2281 12.7692 14.9197 12.8076C13.3005 8.88457 10.2549 6.11534 7.32496 4.26918C10.6019 1.6538 14.727 0.0768767 19.2761 -4.64164e-05Z" fill="#01C0FF"/>
</g>
<defs>
<clipPath id="clip0">
<rect width="262" height="39" fill="white"/>
</clipPath>
</defs>
</svg>
